<svg width="33" height="33" viewBox="0 0 33 33" fill="none" xmlns="http://www.w3.org/2000/svg">
<path d="M15.9909 30.5781C24.073 30.5781 30.6249 24.3101 30.6249 16.5781C30.6249 8.84614 24.073 2.57812 15.9909 2.57812C7.90878 2.57812 1.35693 8.84614 1.35693 16.5781C1.35693 24.3101 7.90878 30.5781 15.9909 30.5781Z" fill="white"/>
<path d="M16.5419 0.578125C7.57787 0.578125 0.311646 7.74146 0.311646 16.5781C0.311646 25.4147 7.57787 32.5781 16.5419 32.5781C25.506 32.5781 32.7722 25.4147 32.7722 16.5781C32.7722 7.74146 25.506 0.578125 16.5419 0.578125ZM21.5697 16.7261C21.5697 14.0708 19.386 11.9178 16.692 11.9178C13.9985 11.9178 11.8148 14.0704 11.8148 16.7261C11.8148 19.3814 13.9985 21.534 16.692 21.534V24.2817C12.4593 24.2817 9.02755 20.8991 9.02755 16.7261C9.02755 12.5532 12.4589 9.17052 16.692 9.17052C20.9252 9.17052 24.3566 12.5532 24.3566 16.7261H21.5697ZM26.2726 16.7261C26.2726 11.5102 21.9835 7.28172 16.692 7.28172C11.4011 7.28172 7.11189 11.5102 7.11189 16.7261C7.11189 21.9419 11.4011 26.1701 16.692 26.1701V29.3185C9.63744 29.3185 3.91811 23.6805 3.91811 16.7261C3.91811 9.7714 9.63744 4.13372 16.692 4.13372C23.747 4.13372 29.4661 9.7714 29.4661 16.7261H26.2726Z" fill="#F43E37"/>
</svg>
