<svg width="35" height="33" viewBox="0 0 35 33" fill="none" xmlns="http://www.w3.org/2000/svg">
<g clip-path="url(#clip0_2_26)">
<path d="M16.9909 30.5781C25.073 30.5781 31.6249 24.3101 31.6249 16.5781C31.6249 8.84614 25.073 2.57812 16.9909 2.57812C8.90878 2.57812 2.35693 8.84614 2.35693 16.5781C2.35693 24.3101 8.90878 30.5781 16.9909 30.5781Z" fill="white"/>
<path d="M17.5419 0.578125C8.57787 0.578125 1.31165 7.74146 1.31165 16.5781C1.31165 25.4147 8.57787 32.5781 17.5419 32.5781C26.506 32.5781 33.7722 25.4147 33.7722 16.5781C33.7722 7.74146 26.506 0.578125 17.5419 0.578125ZM22.5697 16.7261C22.5697 14.0708 20.386 11.9178 17.692 11.9178C14.9985 11.9178 12.8148 14.0704 12.8148 16.7261C12.8148 19.3814 14.9985 21.534 17.692 21.534V24.2817C13.4593 24.2817 10.0275 20.8991 10.0275 16.7261C10.0275 12.5532 13.4589 9.17052 17.692 9.17052C21.9252 9.17052 25.3566 12.5532 25.3566 16.7261H22.5697ZM27.2726 16.7261C27.2726 11.5102 22.9835 7.28172 17.692 7.28172C12.4011 7.28172 8.11189 11.5102 8.11189 16.7261C8.11189 21.9419 12.4011 26.1701 17.692 26.1701V29.3185C10.6374 29.3185 4.91811 23.6805 4.91811 16.7261C4.91811 9.7714 10.6374 4.13372 17.692 4.13372C24.747 4.13372 30.4661 9.7714 30.4661 16.7261H27.2726Z" fill="#F43E37"/>
</g>
<defs>
<clipPath id="clip0_2_26">
<rect width="33.4491" height="32" fill="white" transform="translate(0.62262 0.578125)"/>
</clipPath>
</defs>
</svg>
