<svg width="35" height="33" viewBox="0 0 35 33" fill="none" xmlns="http://www.w3.org/2000/svg">
<g clip-path="url(#clip0_2_33)">
<path d="M33.9344 16.5781C33.9344 25.467 26.4788 32.5781 17.4534 32.5781C8.42821 32.5781 0.841736 25.467 0.841736 16.5781C0.841736 7.68925 8.2974 0.578125 17.3227 0.578125C26.348 0.578125 33.9344 7.68925 33.9344 16.5781Z" fill="url(#paint0_linear_2_33)"/>
<path d="M5.72301 17.6471C5.72939 17.5942 5.7686 17.557 5.818 17.557C5.86561 17.557 5.90506 17.5942 5.91245 17.6468L6.11767 18.9238L5.91245 20.1791C5.90482 20.2317 5.86586 20.2683 5.818 20.2683C5.76857 20.2683 5.72939 20.2314 5.72301 20.1786L5.54987 18.9238L5.72301 17.6471Z" fill="white"/>
<path d="M6.69339 16.7669C6.74329 16.7669 6.78378 16.8048 6.79193 16.8596L7.05646 18.9239L6.79167 20.943C6.78354 20.9977 6.74303 21.0357 6.69339 21.0357C6.64299 21.0357 6.60148 20.9966 6.59485 20.9425L6.36212 18.9239L6.59485 16.8596C6.60172 16.806 6.64323 16.7669 6.69339 16.7669Z" fill="white"/>
<path d="M10.2807 15.1279C10.2853 15.0315 10.3643 14.9555 10.4598 14.9555C10.5547 14.9555 10.6333 15.0315 10.639 15.1279L10.8485 18.9257L10.639 21.3803V21.3796C10.6334 21.4758 10.5547 21.5517 10.4598 21.5517C10.3643 21.5517 10.2855 21.476 10.2807 21.3801L10.0954 18.9257L10.2807 15.1279Z" fill="white"/>
<path d="M8.42211 16.4083C8.42799 16.3324 8.48782 16.2756 8.56115 16.2756C8.63371 16.2756 8.69354 16.3324 8.69993 16.4078L8.93723 18.9247L8.69993 21.3593C8.69354 21.4347 8.63371 21.4916 8.56115 21.4916C8.4878 21.4916 8.42771 21.4347 8.42211 21.3593L8.21332 18.9247L8.42211 16.4083Z" fill="white"/>
<path d="M12.6077 21.34C12.6029 21.4587 12.5066 21.5514 12.3883 21.5514C12.2691 21.5514 12.1726 21.4584 12.1688 21.3408L12.0076 18.9266L12.1688 13.8709C12.1727 13.7522 12.2692 13.6593 12.3885 13.6593C12.507 13.6593 12.6032 13.752 12.608 13.8706L12.7896 18.9269L12.6077 21.34Z" fill="white"/>
<path d="M16.6381 21.2725C16.6351 21.4326 16.5007 21.5629 16.3377 21.5629C16.1747 21.5629 16.0398 21.4326 16.0372 21.2739C16.0372 21.2739 15.9239 18.9303 15.9239 18.9266L16.0372 13.0891C16.0397 12.9287 16.1744 12.7984 16.3377 12.7984C16.5007 12.7984 16.6353 12.929 16.6381 13.0889L16.7649 18.9285L16.6381 21.2725Z" fill="white"/>
<path d="M14.6081 21.3022C14.6042 21.4431 14.4898 21.5536 14.348 21.5536C14.2052 21.5536 14.091 21.4431 14.0878 21.3037L13.9504 18.9277L14.0876 13.8345C14.0907 13.6936 14.205 13.5833 14.3479 13.5833C14.4896 13.5833 14.6039 13.6936 14.6078 13.8345L14.7624 18.9274L14.6081 21.3039V21.3022Z" fill="white"/>
<path d="M9.66583 21.3793C9.65943 21.4656 9.5912 21.5311 9.50688 21.5311C9.42138 21.5311 9.35342 21.4656 9.34776 21.379L9.15094 18.9244L9.34776 16.5902C9.35315 16.5034 9.42138 16.4378 9.50688 16.4378C9.59147 16.4378 9.6597 16.5029 9.66583 16.5891L9.88935 18.9244L9.66583 21.3793Z" fill="white"/>
<path d="M7.74202 21.2844C7.73489 21.3497 7.68498 21.3969 7.62338 21.3969C7.56072 21.3969 7.51081 21.3494 7.5047 21.284L7.28369 18.9242L7.5047 16.475C7.51106 16.4098 7.56095 16.3623 7.62336 16.3623C7.68496 16.3623 7.73487 16.4096 7.74226 16.475L7.99307 18.9242L7.74202 21.2844Z" fill="white"/>
<path d="M15.058 14.0207C15.0612 13.8684 15.1846 13.7495 15.3387 13.7495C15.4925 13.7495 15.6152 13.8684 15.6187 14.0202L15.7593 18.928L15.6187 21.2892V21.2872C15.6152 21.4394 15.4925 21.5581 15.3387 21.5581C15.1844 21.5581 15.0612 21.4392 15.058 21.2889L14.9329 18.9278L15.058 14.0207Z" fill="white"/>
<path d="M11.6199 21.3645C11.6148 21.472 11.527 21.5564 11.4206 21.5564C11.3131 21.5564 11.2255 21.472 11.2212 21.3655L11.0478 18.9265L11.2209 14.2599C11.2256 14.1524 11.3131 14.0681 11.4206 14.0681C11.527 14.0681 11.6146 14.1521 11.6199 14.2599L11.8155 18.9265L11.6199 21.3645Z" fill="white"/>
<path d="M13.6042 21.3259V21.3256C13.5996 21.4545 13.4947 21.5558 13.3646 21.5558C13.234 21.5558 13.1286 21.4541 13.125 21.3257L12.9755 18.9266L13.1248 13.7002C13.1282 13.5702 13.2337 13.4686 13.3646 13.4686C13.4947 13.4686 13.6001 13.5704 13.6042 13.7002L13.7722 18.9269L13.6042 21.3246V21.3256C13.6042 21.3253 13.6042 21.3251 13.6042 21.3249V21.3259Z" fill="white"/>
<path d="M25.1877 16.1339C25.5345 15.9928 25.9152 15.9145 26.3142 15.9145C27.9224 15.9145 29.2261 17.1805 29.2261 18.7421C29.2261 20.3036 27.9222 21.5695 26.314 21.5695C26.262 21.5695 18.249 21.5656 18.2416 21.5648C18.0677 21.5477 17.9295 21.4036 17.9272 21.2306V12.2575C17.9293 12.0926 17.9878 12.0076 18.2075 11.925C18.773 11.7127 19.4135 11.5871 20.0703 11.5871C22.7551 11.5871 24.956 13.5859 25.1877 16.1339Z" fill="white"/>
<path d="M17.0107 12.5601C17.0133 12.3889 17.1569 12.2495 17.3318 12.2495C17.5062 12.2495 17.6497 12.3889 17.6524 12.5597L17.7951 18.9291L17.6524 21.2409V21.2381C17.6497 21.4095 17.5062 21.5486 17.3318 21.5486C17.1569 21.5486 17.0133 21.4095 17.011 21.2406L16.8793 18.9291L17.0107 12.5601Z" fill="white"/>
</g>
<defs>
<linearGradient id="paint0_linear_2_33" x1="17.3881" y1="0.578125" x2="17.3881" y2="32.5781" gradientUnits="userSpaceOnUse">
<stop stop-color="#FF7602"/>
<stop offset="1" stop-color="#FF3502"/>
</linearGradient>
<clipPath id="clip0_2_33">
<rect width="33.4491" height="32" fill="white" transform="translate(0.841492 0.578125)"/>
</clipPath>
</defs>
</svg>
