<svg width="34" height="33" viewBox="0 0 34 33" fill="none" xmlns="http://www.w3.org/2000/svg">
<g clip-path="url(#clip0_2_50)">
<path d="M16.9384 30.5781C25.0566 30.5781 31.6377 24.2821 31.6377 16.5156C31.6377 8.74913 25.0566 2.45312 16.9384 2.45312C8.82018 2.45312 2.23907 8.74913 2.23907 16.5156C2.23907 24.2821 8.82018 30.5781 16.9384 30.5781Z" fill="white"/>
<path fill-rule="evenodd" clip-rule="evenodd" d="M0.971252 16.5156C0.971252 8.07926 8.11997 1.24023 16.9384 1.24023C25.7567 1.24023 32.9055 8.07926 32.9055 16.5156C32.9055 24.952 25.7567 31.791 16.9384 31.791C8.11997 31.791 0.971252 24.952 0.971252 16.5156ZM16.9384 3.66601C9.52036 3.66601 3.50688 9.41899 3.50688 16.5156C3.50688 23.6123 9.52036 29.3652 16.9384 29.3652C24.3564 29.3652 30.3698 23.6123 30.3698 16.5156C30.3698 9.41899 24.3564 3.66601 16.9384 3.66601Z" fill="#363F46"/>
<path d="M8.95817 10.5771C8.95817 10.5771 6.92548 12.7709 6.92548 16.6039C6.92548 20.4369 8.95817 22.5423 8.95817 22.5423" fill="white"/>
<path fill-rule="evenodd" clip-rule="evenodd" d="M9.91197 11.3763C9.91196 11.3763 9.91197 11.3763 9.91197 11.3763C9.91115 11.3772 9.90958 11.379 9.90729 11.3816C9.90024 11.3896 9.88638 11.4057 9.86664 11.4297C9.82715 11.4776 9.76437 11.5569 9.68583 11.6663C9.52853 11.8855 9.30959 12.2236 9.0879 12.6719C8.64514 13.5672 8.19334 14.8972 8.19334 16.6039C8.19334 18.3097 8.64458 19.6146 9.08327 20.4825C9.30316 20.9176 9.51998 21.2429 9.67504 21.4522C9.75247 21.5568 9.81413 21.6319 9.85252 21.6768C9.87169 21.6993 9.88501 21.7141 9.89151 21.7212C9.89331 21.7232 9.89458 21.7246 9.89531 21.7254C10.3644 22.2177 10.3307 22.9807 9.81844 23.4333C9.30409 23.8878 8.50198 23.8574 8.0269 23.3653L8.95823 22.5423C8.0269 23.3653 8.02651 23.3649 8.02611 23.3645L8.02347 23.3617L8.0193 23.3574L8.00877 23.3462C8.00079 23.3377 7.99092 23.3271 7.97928 23.3143C7.95601 23.2887 7.92566 23.2546 7.88925 23.212C7.81648 23.1268 7.71933 23.0075 7.60619 22.8547C7.38013 22.5495 7.08877 22.1089 6.80048 21.5385C6.22283 20.3955 5.65771 18.7312 5.65771 16.6039C5.65771 14.4777 6.22227 12.7943 6.79585 11.6345C7.08234 11.0552 7.37158 10.6053 7.59541 10.2934C7.70743 10.1372 7.80346 10.0152 7.87512 9.92817C7.91097 9.88465 7.94078 9.84985 7.9635 9.8239C7.97487 9.81092 7.98447 9.80014 7.99217 9.79159L8.0023 9.78043L8.00627 9.7761L8.00798 9.77425L8.00876 9.7734C8.00913 9.773 8.0095 9.77261 8.95823 10.5772L8.0095 9.77261C8.47396 9.27134 9.27524 9.22519 9.79921 9.66953C10.3213 10.1123 10.3711 10.8749 9.91197 11.3763Z" fill="#FC7E0F"/>
<path d="M25.1526 10.5771C25.1526 10.5771 27.1853 12.7709 27.1853 16.6039C27.1853 20.4369 25.1526 22.5423 25.1526 22.5423" fill="white"/>
<path fill-rule="evenodd" clip-rule="evenodd" d="M24.3116 9.66952C24.8356 9.22518 25.6369 9.27134 26.1013 9.77262L25.1526 10.5772C26.1013 9.77262 26.1017 9.77301 26.1021 9.77341L26.1029 9.77426L26.1046 9.77611L26.1085 9.78044L26.1187 9.7916C26.1264 9.80015 26.136 9.81093 26.1473 9.82391C26.17 9.84986 26.1999 9.88466 26.2357 9.92818C26.3074 10.0152 26.4034 10.1373 26.5154 10.2934C26.7392 10.6053 27.0285 11.0552 27.3149 11.6345C27.8885 12.7943 28.4531 14.4777 28.4531 16.6039C28.4531 18.7312 27.888 20.3955 27.3103 21.5385C27.022 22.1089 26.7307 22.5495 26.5046 22.8547C26.3915 23.0075 26.2943 23.1268 26.2216 23.212C26.1852 23.2546 26.1548 23.2887 26.1315 23.3143C26.1199 23.3271 26.11 23.3377 26.1021 23.3462L26.0915 23.3574L26.0874 23.3617L26.0856 23.3636L26.0847 23.3645C26.0843 23.3649 26.0839 23.3653 25.1526 22.5423L26.0839 23.3653C25.6089 23.8574 24.8067 23.8878 24.2924 23.4333C23.7801 22.9807 23.7464 22.2177 24.2155 21.7254C24.2158 21.7251 24.2162 21.7247 24.2166 21.7242C24.2173 21.7234 24.2182 21.7225 24.2193 21.7213C24.2258 21.7141 24.2391 21.6993 24.2583 21.6768C24.2967 21.6319 24.3583 21.5568 24.4358 21.4522C24.5908 21.2429 24.8076 20.9176 25.0275 20.4826C25.4662 19.6146 25.9174 18.3097 25.9174 16.6039C25.9174 14.8972 25.4656 13.5672 25.0229 12.6719C24.8012 12.2236 24.5823 11.8855 24.425 11.6663C24.3464 11.5568 24.2837 11.4776 24.2442 11.4296C24.2244 11.4057 24.2106 11.3896 24.2035 11.3816C24.2012 11.3789 24.1997 11.3772 24.1988 11.3763M24.3116 9.66952C23.7895 10.1123 23.7397 10.8749 24.1988 11.3763L24.3116 9.66952Z" fill="#FC7E0F"/>
<path d="M21.9106 13.1406C21.9106 13.1406 23.2798 14.7719 23.2461 16.596C23.2041 18.7897 21.9274 19.9951 21.9274 19.9951" fill="white"/>
<path fill-rule="evenodd" clip-rule="evenodd" d="M21.1168 12.1949C21.6627 11.7755 22.4607 11.8589 22.8991 12.3812L21.9106 13.1406C22.8991 12.3812 22.8989 12.3809 22.8991 12.3812L22.9011 12.3836L22.9036 12.3866L22.9101 12.3944L22.9288 12.4173C22.9437 12.4357 22.9634 12.4606 22.9873 12.4913C23.0351 12.5529 23.0996 12.6387 23.1753 12.7461C23.3258 12.9598 23.5239 13.2637 23.721 13.6343C24.1051 14.3568 24.5357 15.4259 24.5137 16.6174C24.4884 17.9415 24.089 18.9806 23.6869 19.6939C23.4864 20.0496 23.2846 20.3258 23.1264 20.5195C23.0471 20.6165 22.9783 20.6934 22.9252 20.7498C22.8987 20.7781 22.8761 20.8013 22.858 20.8193L22.8343 20.8427L22.8252 20.8515L22.8213 20.8552L22.8196 20.8568L22.8187 20.8576C22.8183 20.858 22.8179 20.8584 21.9274 19.9951L22.8179 20.8584C22.3196 21.3289 21.5169 21.3239 21.025 20.8471C20.5365 20.3736 20.5384 19.6128 21.0267 19.1415C21.0287 19.1395 21.033 19.135 21.0394 19.1282C21.0564 19.1102 21.0876 19.0758 21.1287 19.0255C21.2112 18.9246 21.3312 18.7623 21.4551 18.5425C21.7018 18.1048 21.9618 17.4436 21.9785 16.5742C21.9901 15.9418 21.7529 15.2833 21.461 14.7342C21.3199 14.469 21.1778 14.2511 21.0727 14.1019C21.0205 14.0278 20.9783 13.972 20.9513 13.9372C20.9378 13.9198 20.9282 13.9078 20.9231 13.9014L20.9191 13.8965C20.484 13.3743 20.572 12.6134 21.1168 12.1949ZM21.0355 19.1331C21.0354 19.1332 21.0355 19.1331 21.0355 19.1331V19.1331Z" fill="#FC7E0F"/>
<path d="M12.1335 13.1406C12.1335 13.1406 10.7643 14.7719 10.798 16.596C10.84 18.7897 12.1167 19.9951 12.1167 19.9951" fill="white"/>
<path fill-rule="evenodd" clip-rule="evenodd" d="M13.1225 13.8995L13.1236 13.8982L13.1246 13.897C13.1247 13.8969 13.1251 13.8964 13.1246 13.897C13.1239 13.8979 13.1232 13.8987 13.1225 13.8995ZM12.0656 16.5742C12.054 15.9418 12.2911 15.2833 12.5831 14.7342C12.7241 14.469 12.8663 14.2511 12.9714 14.1019C13.0236 14.0278 13.0658 13.972 13.0928 13.9372C13.1062 13.9198 13.1159 13.9078 13.121 13.9014L13.1246 13.897C13.5597 13.3748 13.4721 12.6134 12.9273 12.1949C12.3813 11.7755 11.5834 11.8589 11.145 12.3812L12.1158 13.127C11.145 12.3812 11.1452 12.3809 11.145 12.3812L11.143 12.3836L11.1405 12.3866L11.134 12.3944L11.1153 12.4173C11.1004 12.4357 11.0806 12.4606 11.0567 12.4913C11.009 12.5529 10.9444 12.6387 10.8688 12.7461C10.7183 12.9598 10.5202 13.2637 10.3231 13.6343C9.93897 14.3568 9.50836 15.4259 9.53035 16.6174C9.55571 17.9415 9.95511 18.9806 10.3572 19.6939C10.5577 20.0496 10.7595 20.3258 10.9177 20.5195C10.997 20.6165 11.0658 20.6934 11.1188 20.7498C11.1454 20.7781 11.168 20.8013 11.1861 20.8193L11.2098 20.8427L11.2189 20.8515L11.2228 20.8552L11.2245 20.8568L11.2253 20.8576C11.2257 20.858 11.2261 20.8584 12.1167 19.9951L11.2261 20.8584C11.7245 21.3289 12.5272 21.3239 13.0191 20.8471C13.5075 20.3736 13.5057 19.6128 13.0174 19.1415C13.0154 19.1395 13.0111 19.135 13.0047 19.1282C12.9877 19.1102 12.9565 19.0758 12.9154 19.0255C12.8329 18.9246 12.7129 18.7623 12.589 18.5425C12.3422 18.1048 12.0823 17.4436 12.0656 16.5742Z" fill="#FC7E0F"/>
<path d="M16.9366 18.6987C18.1967 18.6987 19.2182 17.7214 19.2182 16.5158C19.2182 15.3103 18.1967 14.333 16.9366 14.333C15.6764 14.333 14.6548 15.3103 14.6548 16.5158C14.6548 17.7214 15.6764 18.6987 16.9366 18.6987Z" fill="#363F46"/>
<path d="M17.3222 18.5548L15.7036 18.1386L13.0083 27.7705L14.6269 28.1866L17.3222 18.5548Z" fill="#363F46"/>
<path d="M16.6954 18.5421L18.3068 18.1328L20.9879 27.7715L19.3764 28.1808L16.6954 18.5421Z" fill="#363F46"/>
<path d="M15.198 23.7399L15.7969 23.1533L19.9467 27.021L19.3478 27.6077L15.198 23.7399Z" fill="#363F46"/>
<path d="M18.7129 23.7607L18.1709 23.2354L14.0568 27.1441L14.5986 27.6694L18.7129 23.7607Z" fill="#363F46"/>
</g>
<defs>
<clipPath id="clip0_2_50">
<rect width="33.4491" height="32" fill="white" transform="translate(0.279175 0.578125)"/>
</clipPath>
</defs>
</svg>
