<svg width="34" height="33" viewBox="0 0 34 33" fill="none" xmlns="http://www.w3.org/2000/svg">
<g clip-path="url(#clip0_2_30)">
<path fill-rule="evenodd" clip-rule="evenodd" d="M32.848 28.3138C32.5228 29.1039 31.7726 30.2164 30.7086 31C30.0944 31.4526 29.361 31.8853 28.3537 32.1708C27.2798 32.4752 25.9571 32.5781 24.3109 32.5781H9.25896C7.61289 32.5781 6.29024 32.4752 5.21631 32.1708C4.20897 31.8853 3.47572 31.4526 2.86133 31C1.79749 30.2163 1.0471 29.1039 0.721954 28.3138C0.0670099 26.7219 0.0603638 24.9157 0.0603638 23.7781V9.37809C0.0603638 8.24055 0.0670099 6.43434 0.721954 4.84241C1.0471 4.0523 1.79735 2.93982 2.86133 2.15619C3.47559 1.70359 4.20897 1.27095 5.21631 0.985453C6.2901 0.681006 7.61275 0.578125 9.25896 0.578125H24.3111C25.9571 0.578125 27.2798 0.681006 28.3538 0.985453C29.3611 1.27095 30.0944 1.70372 30.7087 2.15619C31.7726 2.93994 32.523 4.0523 32.8481 4.84241C33.503 6.43434 33.5097 8.24055 33.5097 9.37809V23.7781C33.5095 24.9156 33.5029 26.7218 32.848 28.3138Z" fill="url(#paint0_linear_2_30)"/>
<path d="M19.2109 18.9714C18.7089 18.4648 17.8274 18.14 16.7866 18.14C15.7458 18.14 14.8642 18.4648 14.3622 18.9714C14.1004 19.2358 13.9619 19.5068 13.9182 19.8929C13.8337 20.6406 13.8812 21.2843 13.9728 22.3135C14.0599 23.2942 14.2256 24.6021 14.4417 25.9341C14.5955 26.882 14.7205 27.3936 14.8343 27.76C15.0188 28.3537 15.7083 28.873 16.7866 28.873C17.8648 28.873 18.5543 28.3536 18.7388 27.76C18.8526 27.3936 18.9776 26.882 19.1313 25.9341C19.3475 24.6021 19.5131 23.2942 19.6004 22.3135C19.6919 21.2842 19.7394 20.6404 19.6548 19.8929C19.6112 19.507 19.4727 19.2358 19.2109 18.9714ZM14.0517 14.4603C14.0517 15.9066 15.2773 17.0791 16.7892 17.0791C18.3011 17.0791 19.5267 15.9066 19.5267 14.4603C19.5267 13.0139 18.3011 11.8414 16.7892 11.8414C15.2773 11.8414 14.0517 13.0139 14.0517 14.4603ZM16.7552 4.12517C10.3529 4.1426 5.10689 9.11154 5.02766 15.2361C4.96332 20.1974 8.2738 24.4413 12.8964 25.9969C13.0086 26.0346 13.1225 25.9455 13.1049 25.833C13.0442 25.4477 12.9871 25.0606 12.9346 24.68C12.916 24.5455 12.8264 24.4295 12.6965 24.3752C9.0428 22.8481 6.49148 19.3425 6.53242 15.2818C6.58612 9.9529 11.1347 5.60849 16.705 5.56538C22.3995 5.52138 27.0469 9.94032 27.0469 15.3781C27.0469 19.3981 24.5067 22.8607 20.8815 24.3756C20.7516 24.4299 20.6626 24.5462 20.6441 24.6807C20.5916 25.0611 20.5344 25.4481 20.4739 25.833C20.4561 25.9455 20.5701 26.0346 20.6822 25.997C25.2607 24.4563 28.552 20.2784 28.552 15.3782C28.5516 9.16228 23.2567 4.10737 16.7552 4.12517ZM16.5427 9.28767C20.172 9.15325 23.1694 11.9388 23.1694 15.3815C23.1694 17.1324 22.394 18.7132 21.1547 19.8264C21.0495 19.9208 20.993 20.0548 21.0011 20.1925C21.0258 20.6113 21.0168 21.0183 20.9877 21.4779C20.9798 21.6003 21.1234 21.6785 21.2293 21.6095C23.3076 20.2508 24.6745 17.9662 24.6745 15.3815C24.6745 11.1259 20.9693 7.68252 16.483 7.84886C12.3138 8.0035 8.96888 11.292 8.91545 15.2834C8.88035 17.9084 10.2556 20.234 12.3606 21.6097C12.4663 21.6788 12.6094 21.6005 12.6016 21.4781C12.5723 21.0183 12.5634 20.6113 12.588 20.1925C12.5961 20.0549 12.5398 19.9209 12.4348 19.8267C11.1569 18.6788 10.3721 17.0339 10.4221 15.2179C10.5101 12.0221 13.2033 9.41141 16.5427 9.28767Z" fill="white"/>
</g>
<defs>
<linearGradient id="paint0_linear_2_30" x1="16.785" y1="0.578125" x2="16.785" y2="32.5781" gradientUnits="userSpaceOnUse">
<stop stop-color="#F452FF"/>
<stop offset="1" stop-color="#832BC1"/>
</linearGradient>
<clipPath id="clip0_2_30">
<rect width="33.4491" height="32" fill="white" transform="translate(0.0603638 0.578125)"/>
</clipPath>
</defs>
</svg>
