<svg width="34" height="33" viewBox="0 0 34 33" fill="none" xmlns="http://www.w3.org/2000/svg">
<g clip-path="url(#clip0_2_65)">
<path d="M17.1277 0.630859C7.91939 0.630859 0.454285 7.77238 0.454285 16.5817C0.454285 25.3914 7.91939 32.5324 17.1277 32.5324C26.3369 32.5324 33.8012 25.3914 33.8012 16.5817C33.8012 7.77295 26.3369 0.631621 17.1274 0.631621L17.1277 0.630859ZM24.7739 23.6365C24.4753 24.1051 23.8342 24.2537 23.3444 23.9661C19.4297 21.6785 14.5015 21.1604 8.69769 22.4289C8.13841 22.5508 7.58092 22.2156 7.4535 21.6804C7.32547 21.1451 7.6745 20.6118 8.23517 20.4899C14.5865 19.1011 20.0345 19.6994 24.4295 22.2689C24.9193 22.5565 25.0746 23.168 24.7739 23.6365ZM26.8147 19.2927C26.4384 19.8785 25.638 20.0632 25.0268 19.7032C20.545 17.0672 13.7132 16.304 8.41217 17.8434C7.72468 18.0421 6.99855 17.6714 6.78989 17.0148C6.58283 16.3571 6.97047 15.6638 7.65679 15.4638C13.7121 13.7061 21.2399 14.5575 26.3867 17.5832C26.9979 17.9432 27.191 18.7089 26.8147 19.2929V19.2927ZM26.9899 14.7701C21.6162 11.7165 12.7502 11.4358 7.61955 12.9255C6.79567 13.1645 5.9244 12.7196 5.67473 11.9314C5.42506 11.1428 5.88976 10.3099 6.71423 10.0703C12.6039 8.35981 22.3946 8.69028 28.5816 12.204C29.3242 12.6247 29.5672 13.5404 29.1271 14.2484C28.6891 14.9573 27.7294 15.191 26.9907 14.7701H26.9899Z" fill="#1ED760"/>
</g>
<defs>
<clipPath id="clip0_2_65">
<rect width="33.4491" height="32" fill="white" transform="translate(0.403748 0.578125)"/>
</clipPath>
</defs>
</svg>
